<svg width="185" height="21" viewBox="0 0 185 21" fill="none" xmlns="http://www.w3.org/2000/svg">
<path d="M28.9844 12.5703H32.7285V16.209H34.1523V12.5703H37.9053V11.1465H34.1523V7.50781H32.7285V11.1465H28.9844V12.5703ZM40.6387 17H42.2998L47.9424 5.78516V4.31738H39.5488V5.72363H46.3779V5.75879L40.6387 17ZM56.582 20.0762H57.8652C56.5996 18.6084 55.6416 15.1279 55.6416 12.1924C55.6416 9.25684 56.5996 5.78516 57.8652 4.31738H56.582C54.8682 6.49707 54.0859 9.06348 54.0859 12.1924C54.0859 15.3213 54.8682 17.9053 56.582 20.0762ZM63.71 4.10645C61.1172 4.10645 59.2188 5.91699 59.2188 8.41309V8.43066C59.2188 10.8389 61.0117 12.623 63.4287 12.623C65.1514 12.623 66.4521 11.709 66.9619 10.584H66.9971C66.9971 10.6807 66.9971 10.7686 66.9883 10.8564C66.918 13.5195 65.9863 15.8135 63.6221 15.8135C62.3213 15.8135 61.416 15.1631 61.0381 14.1172L61.0029 14.0205H59.3945L59.4209 14.1348C59.8428 15.9805 61.4512 17.2109 63.6045 17.2109C66.707 17.2109 68.5264 14.7148 68.5264 10.4434V10.4258C68.5264 5.72363 66.0479 4.10645 63.71 4.10645ZM63.7012 11.2344C62.0312 11.2344 60.8271 10.0479 60.8271 8.39551V8.37793C60.8271 6.77832 62.1104 5.5127 63.7275 5.5127C65.3535 5.5127 66.6191 6.80469 66.6191 8.43066V8.43945C66.6191 10.0566 65.3623 11.2344 63.7012 11.2344ZM74.9424 17.2109C77.5352 17.2109 79.4336 15.4004 79.4336 12.9043V12.8867C79.4336 10.4785 77.6406 8.69434 75.2236 8.69434C73.501 8.69434 72.2002 9.6084 71.6904 10.7334H71.6553C71.6553 10.6367 71.6553 10.5488 71.6641 10.4609C71.7344 7.79785 72.666 5.50391 75.0303 5.50391C76.3311 5.50391 77.2363 6.1543 77.6143 7.2002L77.6494 7.29688H79.2578L79.2314 7.18262C78.8096 5.33691 77.2012 4.10645 75.0479 4.10645C71.9453 4.10645 70.126 6.60254 70.126 10.874V10.8916C70.126 15.5938 72.6045 17.2109 74.9424 17.2109ZM72.0332 12.8867V12.8779C72.0332 11.2607 73.29 10.083 74.9512 10.083C76.6211 10.083 77.8252 11.2695 77.8252 12.9219V12.9395C77.8252 14.5391 76.542 15.8047 74.9248 15.8047C73.2988 15.8047 72.0332 14.5127 72.0332 12.8867ZM86.0518 17.2109C88.6445 17.2109 90.543 15.4004 90.543 12.9043V12.8867C90.543 10.4785 88.75 8.69434 86.333 8.69434C84.6104 8.69434 83.3096 9.6084 82.7998 10.7334H82.7646C82.7646 10.6367 82.7646 10.5488 82.7734 10.4609C82.8438 7.79785 83.7754 5.50391 86.1396 5.50391C87.4404 5.50391 88.3457 6.1543 88.7236 7.2002L88.7588 7.29688H90.3672L90.3408 7.18262C89.9189 5.33691 88.3105 4.10645 86.1572 4.10645C83.0547 4.10645 81.2354 6.60254 81.2354 10.874V10.8916C81.2354 15.5938 83.7139 17.2109 86.0518 17.2109ZM83.1426 12.8867V12.8779C83.1426 11.2607 84.3994 10.083 86.0605 10.083C87.7305 10.083 88.9346 11.2695 88.9346 12.9219V12.9395C88.9346 14.5391 87.6514 15.8047 86.0342 15.8047C84.4082 15.8047 83.1426 14.5127 83.1426 12.8867ZM93.1797 20.0762C94.8936 17.9053 95.6758 15.3213 95.6758 12.1924C95.6758 9.06348 94.8936 6.49707 93.1797 4.31738H91.8965C93.1621 5.78516 94.1201 9.25684 94.1201 12.1924C94.1201 15.1279 93.1621 18.6084 91.8965 20.0762H93.1797ZM106.425 17.2109C109.062 17.2109 110.934 15.4355 110.942 12.8955V12.8779C110.942 10.4434 109.185 8.67676 106.75 8.67676C105.52 8.67676 104.465 9.13379 103.867 9.98633H103.832L104.263 5.72363H110.222V4.31738H102.962L102.312 11.5508H103.709C103.876 11.2607 104.078 11.0146 104.307 10.8037C104.869 10.2939 105.607 10.0391 106.469 10.0391C108.147 10.0391 109.352 11.2344 109.36 12.9043V12.9219C109.36 14.627 108.165 15.8223 106.442 15.8223C104.922 15.8223 103.797 14.8643 103.639 13.6074L103.63 13.5371H102.074L102.083 13.6338C102.268 15.6992 103.999 17.2109 106.425 17.2109ZM116.954 17.2109C119.591 17.2109 121.463 15.4355 121.472 12.8955V12.8779C121.472 10.4434 119.714 8.67676 117.279 8.67676C116.049 8.67676 114.994 9.13379 114.396 9.98633H114.361L114.792 5.72363H120.751V4.31738H113.491L112.841 11.5508H114.238C114.405 11.2607 114.607 11.0146 114.836 10.8037C115.398 10.2939 116.137 10.0391 116.998 10.0391C118.677 10.0391 119.881 11.2344 119.89 12.9043V12.9219C119.89 14.627 118.694 15.8223 116.972 15.8223C115.451 15.8223 114.326 14.8643 114.168 13.6074L114.159 13.5371H112.604L112.612 13.6338C112.797 15.6992 114.528 17.2109 116.954 17.2109ZM131.184 17.2109C133.873 17.2109 135.789 15.6992 135.789 13.5723V13.5547C135.789 11.9902 134.69 10.6895 133.064 10.3115V10.2764C134.453 9.8457 135.332 8.79102 135.332 7.45508V7.4375C135.332 5.52148 133.583 4.10645 131.184 4.10645C128.784 4.10645 127.035 5.52148 127.035 7.4375V7.45508C127.035 8.79102 127.914 9.8457 129.303 10.2764V10.3115C127.677 10.6895 126.578 11.9902 126.578 13.5547V13.5723C126.578 15.6992 128.494 17.2109 131.184 17.2109ZM131.184 9.6875C129.654 9.6875 128.608 8.81738 128.608 7.58691V7.56934C128.608 6.33887 129.654 5.46875 131.184 5.46875C132.713 5.46875 133.759 6.33887 133.759 7.56934V7.58691C133.759 8.81738 132.713 9.6875 131.184 9.6875ZM131.184 15.8311C129.435 15.8311 128.187 14.8467 128.187 13.4756V13.458C128.187 12.0693 129.426 11.0762 131.184 11.0762C132.941 11.0762 134.181 12.0693 134.181 13.458V13.4756C134.181 14.8467 132.933 15.8311 131.184 15.8311ZM141.977 17.2109C144.666 17.2109 146.582 15.6992 146.582 13.5723V13.5547C146.582 11.9902 145.483 10.6895 143.857 10.3115V10.2764C145.246 9.8457 146.125 8.79102 146.125 7.45508V7.4375C146.125 5.52148 144.376 4.10645 141.977 4.10645C139.577 4.10645 137.828 5.52148 137.828 7.4375V7.45508C137.828 8.79102 138.707 9.8457 140.096 10.2764V10.3115C138.47 10.6895 137.371 11.9902 137.371 13.5547V13.5723C137.371 15.6992 139.287 17.2109 141.977 17.2109ZM141.977 9.6875C140.447 9.6875 139.401 8.81738 139.401 7.58691V7.56934C139.401 6.33887 140.447 5.46875 141.977 5.46875C143.506 5.46875 144.552 6.33887 144.552 7.56934V7.58691C144.552 8.81738 143.506 9.6875 141.977 9.6875ZM141.977 15.8311C140.228 15.8311 138.979 14.8467 138.979 13.4756V13.458C138.979 12.0693 140.219 11.0762 141.977 11.0762C143.734 11.0762 144.974 12.0693 144.974 13.458V13.4756C144.974 14.8467 143.726 15.8311 141.977 15.8311ZM158.122 17H159.651V14.3633H161.444V12.9746H159.651V4.31738H157.313L151.75 12.9307V14.3633H158.122V17ZM153.314 12.9746V12.9395L158.069 5.6709H158.122V12.9746H153.314ZM167.438 4.10645C164.846 4.10645 162.947 5.91699 162.947 8.41309V8.43066C162.947 10.8389 164.74 12.623 167.157 12.623C168.88 12.623 170.181 11.709 170.69 10.584H170.726C170.726 10.6807 170.726 10.7686 170.717 10.8564C170.646 13.5195 169.715 15.8135 167.351 15.8135C166.05 15.8135 165.145 15.1631 164.767 14.1172L164.731 14.0205H163.123L163.149 14.1348C163.571 15.9805 165.18 17.2109 167.333 17.2109C170.436 17.2109 172.255 14.7148 172.255 10.4434V10.4258C172.255 5.72363 169.776 4.10645 167.438 4.10645ZM167.43 11.2344C165.76 11.2344 164.556 10.0479 164.556 8.39551V8.37793C164.556 6.77832 165.839 5.5127 167.456 5.5127C169.082 5.5127 170.348 6.80469 170.348 8.43066V8.43945C170.348 10.0566 169.091 11.2344 167.43 11.2344ZM178.548 4.10645C175.955 4.10645 174.057 5.91699 174.057 8.41309V8.43066C174.057 10.8389 175.85 12.623 178.267 12.623C179.989 12.623 181.29 11.709 181.8 10.584H181.835C181.835 10.6807 181.835 10.7686 181.826 10.8564C181.756 13.5195 180.824 15.8135 178.46 15.8135C177.159 15.8135 176.254 15.1631 175.876 14.1172L175.841 14.0205H174.232L174.259 14.1348C174.681 15.9805 176.289 17.2109 178.442 17.2109C181.545 17.2109 183.364 14.7148 183.364 10.4434V10.4258C183.364 5.72363 180.886 4.10645 178.548 4.10645ZM178.539 11.2344C176.869 11.2344 175.665 10.0479 175.665 8.39551V8.37793C175.665 6.77832 176.948 5.5127 178.565 5.5127C180.191 5.5127 181.457 6.80469 181.457 8.43066V8.43945C181.457 10.0566 180.2 11.2344 178.539 11.2344Z" fill="#454F5B"/>
<g clip-path="url(#clip0_18209_2977)">
<path d="M18.7719 15.125C18.7206 15.0844 15 12.4025 13.9787 12.595C13.4912 12.6812 13.2125 13.0138 12.6531 13.6794C12.5631 13.7869 12.3469 14.0444 12.1788 14.2275C11.8252 14.1122 11.4804 13.9718 11.1469 13.8075C9.42533 12.9694 8.03437 11.5784 7.19625 9.85687C7.03179 9.52339 6.89143 9.17855 6.77625 8.825C6.96 8.65625 7.2175 8.44 7.3275 8.3475C7.99 7.79125 8.32312 7.5125 8.40938 7.02375C8.58625 6.01125 5.90625 2.265 5.87812 2.23125C5.75653 2.05754 5.59784 1.91304 5.41355 1.80819C5.22925 1.70334 5.02395 1.64077 4.8125 1.625C3.72625 1.625 0.625 5.64813 0.625 6.32562C0.625 6.365 0.681875 10.3675 5.6175 15.3881C10.6331 20.3181 14.635 20.375 14.6744 20.375C15.3525 20.375 19.375 17.2737 19.375 16.1875C19.3594 15.9768 19.2972 15.7722 19.1929 15.5884C19.0886 15.4047 18.9448 15.2464 18.7719 15.125Z" fill="#4295E4"/>
</g>
<defs>
<clipPath id="clip0_18209_2977">
<rect width="20" height="20" fill="white" transform="translate(0 1)"/>
</clipPath>
</defs>
</svg>
